<svg xmlns="http://www.w3.org/2000/svg" aria-hidden="true" style="position:absolute;width:0;height:0;overflow:hidden">
  <defs>
    <symbol id="icon-facebook" viewBox="0 0 32 32">
      <path fill="#f4f4fd" d="M21.329 5.313h2.921V.225C23.746.156 22.013 0 19.994 0c-4.212 0-7.097 2.649-7.097 7.519V12H8.249v5.688h4.648V32h5.699V17.689h4.46l.708-5.688h-5.169V8.082c.001-1.644.444-2.769 2.735-2.769z" style="fill:var(--color1, #f4f4fd)"/>
    </symbol>
    <symbol id="icon-instagram" viewBox="0 0 32 32">
      <path fill="#f4f4fd" d="M31.969 9.408c-.075-1.7-.35-2.869-.744-3.882a7.803 7.803 0 0 0-1.85-2.838A7.867 7.867 0 0 0 26.543.844C25.524.45 24.361.175 22.661.1 20.948.019 20.404 0 16.06 0s-4.888.019-6.595.094c-1.7.075-2.869.35-3.882.744a7.803 7.803 0 0 0-2.838 1.85A7.867 7.867 0 0 0 .901 5.52C.507 6.539.232 7.702.157 9.402c-.081 1.713-.1 2.257-.1 6.601s.019 4.888.094 6.595c.075 1.7.35 2.869.744 3.882a7.895 7.895 0 0 0 1.85 2.838 7.867 7.867 0 0 0 2.832 1.844c1.019.394 2.182.669 3.882.744 1.706.075 2.25.094 6.595.094s4.888-.018 6.595-.094c1.7-.075 2.869-.35 3.882-.744a8.181 8.181 0 0 0 4.682-4.682c.394-1.019.669-2.182.744-3.882.075-1.707.094-2.251.094-6.595s-.006-4.888-.081-6.595zm-2.882 13.065c-.069 1.563-.331 2.407-.55 2.969a5.307 5.307 0 0 1-3.038 3.038c-.563.219-1.413.481-2.969.55-1.688.075-2.194.094-6.464.094s-4.782-.018-6.464-.094c-1.563-.069-2.407-.331-2.969-.55a4.926 4.926 0 0 1-1.838-1.194 4.974 4.974 0 0 1-1.194-1.838c-.219-.563-.481-1.413-.55-2.969-.075-1.688-.094-2.194-.094-6.464s.019-4.782.094-6.464c.069-1.563.331-2.407.55-2.969a4.868 4.868 0 0 1 1.2-1.838A4.974 4.974 0 0 1 6.639 3.55c.563-.219 1.413-.481 2.969-.55 1.688-.075 2.194-.094 6.464-.094 4.276 0 4.782.019 6.464.094 1.563.069 2.407.331 2.969.55a4.914 4.914 0 0 1 1.838 1.194 4.974 4.974 0 0 1 1.194 1.838c.219.563.481 1.413.55 2.969.075 1.688.094 2.194.094 6.464s-.019 4.77-.094 6.457z" style="fill:var(--color1, #f4f4fd)"/>
      <path fill="#f4f4fd" d="M16.059 7.782c-4.538 0-8.22 3.682-8.22 8.22s3.682 8.22 8.22 8.22 8.22-3.682 8.22-8.22-3.682-8.22-8.22-8.22zm0 13.553a5.333 5.333 0 0 1 0-10.664 5.333 5.333 0 0 1 0 10.664zM26.524 7.457a1.919 1.919 0 1 1-3.838 0 1.919 1.919 0 0 1 3.838 0z" style="fill:var(--color1, #f4f4fd)"/>
    </symbol>
    <symbol id="icon-linkedin" viewBox="0 0 32 32">
      <path fill="#f4f4fd" d="M31.992 32v-.001H32V20.263c0-5.741-1.236-10.164-7.948-10.164-3.227 0-5.392 1.771-6.276 3.449h-.093v-2.913h-6.364v21.364h6.627V21.42c0-2.785.528-5.479 3.977-5.479 3.399 0 3.449 3.179 3.449 5.657v10.401h6.62zM.528 10.636h6.635V32H.528V10.636zM3.843 0C1.722 0 0 1.721 0 3.843s1.721 3.879 3.843 3.879c2.121 0 3.843-1.757 3.843-3.879A3.846 3.846 0 0 0 3.843 0z" style="fill:var(--color1, #f4f4fd)"/>
    </symbol>
    <symbol id="icon-twitter" viewBox="0 0 32 32">
      <path fill="#f4f4fd" d="M32 6.078c-1.19.522-2.458.868-3.78 1.036a6.523 6.523 0 0 0 2.886-3.626 13.11 13.11 0 0 1-4.16 1.588A6.574 6.574 0 0 0 22.154 3c-3.632 0-6.556 2.948-6.556 6.562 0 .52.044 1.02.152 1.496-5.454-.266-10.28-2.88-13.522-6.862a6.605 6.605 0 0 0-.898 3.316 6.57 6.57 0 0 0 2.914 5.452 6.479 6.479 0 0 1-2.964-.808v.072c0 3.188 2.274 5.836 5.256 6.446a6.548 6.548 0 0 1-1.72.216 5.8 5.8 0 0 1-1.242-.112c.85 2.598 3.262 4.508 6.13 4.57a13.182 13.182 0 0 1-8.134 2.798c-.538 0-1.054-.024-1.57-.09A18.469 18.469 0 0 0 10.064 29c12.072 0 18.672-10 18.672-18.668 0-.29-.01-.57-.024-.848A13.087 13.087 0 0 0 32 6.078z" style="fill:var(--color1, #f4f4fd)"/>
    </symbol>
    <symbol id="icon-Logo-1" viewBox="0 0 53 32">
<path fill="" style="fill: var(--color1)" d="M19.302 3.921l3.56 3.391-6.607-0.004v16.453h17.27v-6.291l3.556 3.387v-16.937h-17.778zM33.368 17.073l-10.093-9.615h10.093v9.615zM30.234 21.355h-11.247v-11.066h0.795v10.316h10.452v0.749zM21.23 26.809l-0.419-0.862h-0.346l0.608 1.141v0.665h0.314v-0.665l0.608-1.141h-0.345l-0.419 0.862zM22.775 25.948h0.074l0.682 1.806h-0.327l-0.146-0.423h-0.699l-0.146 0.423h-0.326l0.68-1.806h0.208zM22.444 27.083h0.529l-0.265-0.766-0.264 0.766zM24.626 26.784c-0.014-0.017-0.027-0.034-0.039-0.051-0.046-0.061-0.082-0.12-0.108-0.177s-0.038-0.117-0.038-0.179c0-0.094 0.019-0.175 0.058-0.243s0.094-0.12 0.165-0.156c0.071-0.037 0.154-0.056 0.249-0.056 0.092 0 0.171 0.019 0.237 0.056s0.118 0.085 0.154 0.145c0.036 0.060 0.055 0.126 0.055 0.198 0 0.057-0.010 0.109-0.031 0.156s-0.049 0.090-0.086 0.129c-0.036 0.039-0.079 0.076-0.126 0.11l-0.125 0.091 0.358 0.422c0.012-0.023 0.022-0.048 0.032-0.073 0.031-0.079 0.046-0.167 0.046-0.264h0.258c0 0.088-0.009 0.171-0.026 0.249s-0.043 0.151-0.081 0.218c-0.015 0.028-0.032 0.054-0.051 0.080l0.264 0.312h-0.346l-0.105-0.123c-0.057 0.043-0.119 0.077-0.185 0.101-0.088 0.031-0.181 0.047-0.28 0.047-0.12 0-0.224-0.022-0.311-0.066s-0.155-0.104-0.203-0.181c-0.047-0.077-0.071-0.165-0.071-0.264 0-0.074 0.015-0.138 0.046-0.193s0.072-0.108 0.125-0.156c0.049-0.044 0.105-0.089 0.167-0.133zM24.774 26.966l-0.037 0.027c-0.044 0.036-0.076 0.070-0.098 0.103s-0.034 0.062-0.041 0.089c-0.007 0.027-0.010 0.051-0.010 0.072 0 0.053 0.011 0.101 0.033 0.144s0.057 0.077 0.1 0.103c0.045 0.025 0.099 0.037 0.162 0.037 0.069 0 0.135-0.015 0.2-0.046 0.032-0.016 0.063-0.035 0.092-0.057l-0.402-0.473zM24.845 26.636l0.111-0.075c0.052-0.035 0.089-0.069 0.112-0.102s0.033-0.076 0.033-0.126c0-0.043-0.017-0.083-0.050-0.119s-0.080-0.055-0.14-0.055c-0.042 0-0.078 0.010-0.107 0.030s-0.051 0.045-0.066 0.077c-0.014 0.031-0.021 0.067-0.021 0.105 0 0.037 0.009 0.076 0.029 0.115s0.045 0.080 0.078 0.123c0.007 0.009 0.014 0.017 0.021 0.026zM28.004 27.165h-0.31c-0.009 0.079-0.028 0.145-0.057 0.2s-0.070 0.095-0.125 0.123c-0.055 0.028-0.126 0.042-0.215 0.042-0.073 0-0.135-0.014-0.187-0.043s-0.095-0.070-0.129-0.123c-0.033-0.053-0.058-0.116-0.074-0.19s-0.024-0.157-0.024-0.248v-0.153c0-0.096 0.009-0.181 0.026-0.255s0.045-0.139 0.081-0.19 0.080-0.090 0.133-0.117c0.053-0.026 0.115-0.040 0.186-0.040 0.087 0 0.157 0.015 0.211 0.045s0.094 0.071 0.122 0.126c0.028 0.055 0.046 0.122 0.055 0.2h0.31c-0.012-0.121-0.046-0.228-0.102-0.321s-0.131-0.167-0.231-0.22c-0.099-0.053-0.221-0.079-0.365-0.079-0.113 0-0.215 0.020-0.306 0.060s-0.167 0.097-0.232 0.172c-0.064 0.074-0.114 0.164-0.149 0.269s-0.051 0.222-0.051 0.352v0.15c0 0.13 0.017 0.247 0.050 0.352s0.083 0.195 0.146 0.269c0.064 0.074 0.14 0.131 0.229 0.171s0.19 0.060 0.301 0.060c0.146 0 0.269-0.026 0.371-0.079s0.181-0.125 0.237-0.217c0.056-0.093 0.089-0.198 0.099-0.316zM29.727 26.9v-0.099c0-0.136-0.018-0.258-0.055-0.366s-0.086-0.2-0.153-0.277c-0.066-0.077-0.145-0.135-0.237-0.175s-0.193-0.061-0.305-0.061c-0.111 0-0.212 0.020-0.304 0.061s-0.17 0.098-0.237 0.175c-0.066 0.076-0.117 0.168-0.154 0.277s-0.055 0.229-0.055 0.366v0.099c0 0.136 0.018 0.259 0.055 0.367s0.089 0.2 0.156 0.277c0.067 0.076 0.146 0.134 0.237 0.175s0.193 0.060 0.304 0.060c0.112 0 0.213-0.020 0.305-0.060s0.17-0.099 0.236-0.175c0.066-0.076 0.117-0.168 0.153-0.277s0.053-0.231 0.053-0.367zM29.415 26.798v0.102c0 0.101-0.010 0.19-0.030 0.268s-0.047 0.143-0.084 0.197c-0.037 0.053-0.083 0.093-0.136 0.12s-0.115 0.040-0.185 0.040c-0.069 0-0.13-0.013-0.184-0.040s-0.1-0.067-0.139-0.12c-0.038-0.054-0.067-0.119-0.087-0.197s-0.030-0.167-0.030-0.268v-0.102c0-0.101 0.010-0.19 0.030-0.267s0.048-0.143 0.086-0.195c0.038-0.053 0.084-0.093 0.138-0.119s0.115-0.041 0.184-0.041 0.13 0.014 0.185 0.041c0.055 0.026 0.1 0.066 0.138 0.119s0.067 0.117 0.086 0.195c0.020 0.077 0.030 0.166 0.030 0.267z"></path>
</symbol>
<symbol id="icon-Logo-2" viewBox="0 0 58 32">
<path fill="" style="fill: var(--color1)" d="M28.134 3.736h-0.077c-0.118-0.007-0.236-0.010-0.354-0.013v0h-0.256c-0.223 0-0.45 0.006-0.676 0.017-0.017-0.001-0.034-0.001-0.051 0-2.046 0.116-4.050 0.627-5.904 1.506l-0.243 0.117v12.43l0.568-0.193c0.498-0.171 1.030-0.326 1.579-0.468 1.486-0.381 3.011-0.584 4.545-0.604v1.633c-0.203 0.001-0.401 0.007-0.598 0.017h-0.047c-1.18 0.065-2.351 0.245-3.497 0.537-1.451 0.363-2.85 0.909-4.165 1.623v-15.942c1.366-0.797 2.837-1.395 4.37-1.777 1.346-0.347 2.729-0.526 4.119-0.531h0.24c0.287 0.007 0.567 0.020 0.829 0.040 0.692 0.049 1.379 0.158 2.052 0.327v1.607c-0.654-0.152-1.319-0.253-1.988-0.3-0.014-0.001-0.027-0.002-0.041-0.003-0.139-0.012-0.277-0.024-0.407-0.024zM30.963 5.379c0.356 0.027 0.726 0.040 1.099 0.040 1.461-0.005 2.915-0.192 4.33-0.555 1.45-0.365 2.849-0.91 4.164-1.625v15.658c-1.367 0.796-2.838 1.395-4.371 1.777-1.346 0.346-2.729 0.524-4.119 0.53-1.053 0.009-2.102-0.115-3.124-0.368v-15.759c0.241 0.056 0.49 0.107 0.743 0.15 0.415 0.070 0.852 0.121 1.278 0.153zM38.932 5.5l-0.568 0.191c-0.523 0.176-1.050 0.333-1.579 0.473-1.542 0.396-3.127 0.6-4.719 0.605-0.371 0-0.711-0.010-1.041-0.031l-0.453-0.030v12.787l0.389 0.034c0.361 0.031 0.733 0.047 1.108 0.047 1.254-0.005 2.502-0.167 3.717-0.481 1-0.251 1.973-0.6 2.904-1.044l0.243-0.117v-12.434z"></path>
<path fill="" style="fill: var(--color1)" d="M20.063 25.787c-0.082-0.085-0.18-0.151-0.289-0.195s-0.226-0.065-0.343-0.060c-0.125-0.002-0.249 0.022-0.365 0.069-0.106 0.042-0.203 0.106-0.284 0.187s-0.143 0.179-0.183 0.285c-0.045 0.112-0.067 0.232-0.065 0.353v2.13c-0.005 0.15 0.024 0.299 0.084 0.437 0.050 0.109 0.123 0.206 0.213 0.286 0.085 0.072 0.185 0.123 0.293 0.151 0.104 0.029 0.211 0.044 0.318 0.044 0.119 0.001 0.236-0.024 0.344-0.074 0.106-0.047 0.203-0.113 0.284-0.197 0.079-0.083 0.142-0.18 0.186-0.286 0.046-0.107 0.069-0.223 0.068-0.34v-0.238h-0.557v0.19c0.002 0.065-0.009 0.129-0.033 0.19-0.018 0.045-0.046 0.086-0.081 0.12-0.034 0.028-0.074 0.049-0.116 0.061-0.038 0.013-0.077 0.019-0.116 0.020-0.050 0.006-0.1-0.002-0.146-0.022s-0.086-0.052-0.115-0.092c-0.052-0.086-0.078-0.185-0.074-0.286v-1.986c-0.003-0.11 0.020-0.219 0.068-0.318 0.029-0.045 0.070-0.081 0.118-0.104s0.102-0.031 0.155-0.025c0.048-0.002 0.096 0.008 0.139 0.029s0.081 0.052 0.11 0.091c0.062 0.082 0.095 0.183 0.092 0.286v0.184h0.551v-0.217c0.001-0.127-0.022-0.254-0.068-0.373-0.041-0.112-0.104-0.214-0.186-0.3z"></path>
<path fill="" style="fill: var(--color1)" d="M23.371 25.762c-0.178-0.15-0.402-0.233-0.633-0.234-0.113 0-0.226 0.021-0.332 0.060-0.108 0.039-0.208 0.098-0.294 0.174-0.092 0.083-0.166 0.185-0.216 0.298-0.056 0.13-0.084 0.271-0.081 0.413v2.043c-0.004 0.144 0.024 0.286 0.081 0.418 0.050 0.11 0.124 0.207 0.216 0.286 0.085 0.079 0.185 0.14 0.294 0.18 0.107 0.039 0.219 0.059 0.332 0.060s0.226-0.020 0.332-0.060c0.111-0.040 0.213-0.101 0.301-0.18 0.089-0.080 0.16-0.177 0.21-0.286 0.057-0.132 0.085-0.275 0.081-0.418v-2.043c0.003-0.142-0.025-0.282-0.081-0.413-0.050-0.113-0.121-0.214-0.21-0.298zM23.111 28.516c0.005 0.054-0.003 0.109-0.022 0.16s-0.050 0.097-0.089 0.135c-0.074 0.062-0.166 0.096-0.262 0.096s-0.188-0.034-0.262-0.096c-0.039-0.038-0.070-0.084-0.089-0.135s-0.027-0.106-0.022-0.16v-2.043c-0.005-0.054 0.003-0.109 0.022-0.16s0.049-0.097 0.089-0.135c0.074-0.062 0.166-0.095 0.262-0.095s0.189 0.034 0.262 0.095c0.039 0.038 0.070 0.084 0.089 0.135s0.027 0.106 0.022 0.16v2.043z"></path>
<path fill="" style="fill: var(--color1)" d="M27.715 29.428v-3.867h-0.535l-0.703 2.047h-0.010l-0.709-2.047h-0.53v3.867h0.552v-2.353h0.010l0.541 1.663h0.276l0.545-1.663h0.010v2.353h0.552z"></path>
<path fill="" style="fill: var(--color1)" d="M30.854 25.832c-0.085-0.095-0.192-0.168-0.312-0.211-0.129-0.042-0.265-0.062-0.401-0.060h-0.821v3.867h0.551v-1.51h0.284c0.172 0.008 0.343-0.029 0.497-0.106 0.125-0.070 0.23-0.172 0.303-0.296 0.064-0.103 0.107-0.217 0.126-0.337 0.022-0.146 0.032-0.293 0.030-0.44 0.005-0.186-0.013-0.371-0.054-0.552-0.037-0.134-0.107-0.256-0.203-0.355zM30.57 27.011c-0.002 0.070-0.020 0.139-0.051 0.201-0.032 0.059-0.081 0.107-0.142 0.136-0.082 0.037-0.171 0.053-0.26 0.049h-0.251v-1.315h0.284c0.086-0.004 0.171 0.012 0.249 0.049 0.057 0.033 0.102 0.083 0.129 0.143 0.030 0.068 0.047 0.141 0.048 0.216 0 0.081 0 0.167 0 0.257s0.006 0.183 0 0.266h-0.006z"></path>
<path fill="" style="fill: var(--color1)" d="M33.464 25.561h-0.452l-0.852 3.867h0.551l0.162-0.831h0.751l0.162 0.831h0.551l-0.873-3.867zM32.956 28.071l0.271-1.402h0.010l0.27 1.402h-0.551z"></path>
<path fill="" style="fill: var(--color1)" d="M37.024 27.891h-0.010l-0.832-2.33h-0.53v3.867h0.551v-2.326h0.011l0.842 2.326h0.518v-3.867h-0.551v2.33z"></path>
<path fill="" style="fill: var(--color1)" d="M40.392 25.561l-0.443 1.538h-0.011l-0.443-1.538h-0.584l0.757 2.233v1.635h0.551v-1.635l0.757-2.233h-0.584z"></path>
<path fill="" style="fill: var(--color1)" d="M18.526 30.52h0.266v0.745h0.18v-0.745h0.264v-0.153h-0.71v0.153z"></path>
<path fill="" style="fill: var(--color1)" d="M20.759 30.368l-0.348 0.898h0.192l0.074-0.204h0.358l0.077 0.204h0.196l-0.357-0.898h-0.192zM20.73 30.91l0.122-0.333 0.122 0.333h-0.244z"></path>
<path fill="" style="fill: var(--color1)" d="M22.966 30.934h0.207v0.116c-0.061 0.049-0.136 0.075-0.213 0.076-0.036 0.002-0.072-0.005-0.105-0.020s-0.062-0.038-0.085-0.066c-0.048-0.068-0.071-0.151-0.067-0.234 0-0.2 0.087-0.3 0.258-0.3 0.045-0.005 0.091 0.007 0.128 0.034s0.064 0.065 0.075 0.109l0.178-0.034c-0.038-0.176-0.165-0.264-0.381-0.264-0.115-0.003-0.228 0.038-0.314 0.116-0.045 0.045-0.080 0.099-0.103 0.158s-0.031 0.123-0.027 0.187c-0.005 0.123 0.036 0.243 0.115 0.337 0.044 0.045 0.097 0.081 0.156 0.103s0.122 0.032 0.185 0.028c0.141 0.004 0.277-0.047 0.381-0.143v-0.354h-0.389v0.151z"></path>
<path fill="" style="fill: var(--color1)" d="M25.22 30.368h-0.182v0.898h0.629v-0.153h-0.447v-0.745z"></path>
<path fill="" style="fill: var(--color1)" d="M27.126 30.368h-0.182v0.898h0.182v-0.898z"></path>
<path fill="" style="fill: var(--color1)" d="M28.989 30.967l-0.368-0.6h-0.176v0.898h0.169v-0.587l0.361 0.587h0.18v-0.898h-0.166v0.6z"></path>
<path fill="" style="fill: var(--color1)" d="M30.673 30.87h0.447v-0.153h-0.447v-0.197h0.481v-0.153h-0.663v0.898h0.682v-0.153h-0.5v-0.243z"></path>
<path fill="" style="fill: var(--color1)" d="M34.758 30.722h-0.354v-0.354h-0.18v0.898h0.18v-0.393h0.354v0.393h0.18v-0.898h-0.18v0.354z"></path>
<path fill="" style="fill: var(--color1)" d="M36.452 30.87h0.449v-0.153h-0.449v-0.197h0.483v-0.153h-0.663v0.898h0.68v-0.153h-0.5v-0.243z"></path>
<path fill="" style="fill: var(--color1)" d="M38.75 30.87c0.156-0.024 0.236-0.107 0.236-0.25 0.005-0.038-0.001-0.077-0.017-0.112s-0.040-0.065-0.071-0.088c-0.081-0.041-0.172-0.059-0.263-0.053h-0.381v0.898h0.18v-0.375h0.035c0.038-0.002 0.077 0.004 0.112 0.020 0.026 0.016 0.048 0.039 0.064 0.066l0.196 0.285h0.216l-0.109-0.176c-0.048-0.087-0.117-0.161-0.199-0.216zM38.568 30.746h-0.133v-0.226h0.142c0.062-0.005 0.124 0.002 0.183 0.021 0.013 0.012 0.023 0.026 0.030 0.042s0.010 0.034 0.009 0.051c-0.001 0.018-0.006 0.035-0.014 0.050s-0.020 0.029-0.034 0.039c-0.059 0.018-0.121 0.025-0.183 0.021z"></path>
<path fill="" style="fill: var(--color1)" d="M40.483 30.87h0.447v-0.153h-0.447v-0.197h0.483v-0.153h-0.665v0.898h0.682v-0.153h-0.5v-0.243z"></path>
</symbol>
<symbol id="icon-Logo-3" viewBox="0 0 58 32">
<path fill="" style="fill: var(--color1)" d="M20.665 28.038c0.009 0 0.018 0.002 0.026 0.005s0.016 0.008 0.022 0.013l0.124 0.116c-0.096 0.094-0.215 0.17-0.349 0.221-0.156 0.056-0.325 0.083-0.494 0.079-0.159 0.003-0.318-0.022-0.465-0.074-0.133-0.047-0.252-0.119-0.35-0.209-0.1-0.094-0.177-0.204-0.226-0.323-0.054-0.133-0.081-0.273-0.079-0.414-0.002-0.142 0.027-0.283 0.085-0.416 0.054-0.12 0.136-0.23 0.24-0.323 0.106-0.091 0.232-0.163 0.372-0.211 0.153-0.051 0.315-0.076 0.479-0.074 0.152-0.003 0.303 0.020 0.445 0.068 0.123 0.045 0.235 0.109 0.333 0.187l-0.104 0.124c-0.007 0.009-0.016 0.016-0.026 0.023-0.012 0.007-0.027 0.010-0.042 0.009-0.016-0.001-0.032-0.006-0.045-0.013l-0.056-0.033-0.077-0.042c-0.033-0.016-0.068-0.029-0.104-0.041-0.046-0.014-0.093-0.025-0.141-0.033-0.061-0.010-0.123-0.014-0.184-0.013-0.118-0.001-0.235 0.018-0.344 0.056-0.102 0.035-0.194 0.088-0.27 0.156-0.077 0.072-0.137 0.157-0.175 0.249-0.044 0.105-0.065 0.217-0.064 0.328-0.002 0.114 0.020 0.227 0.064 0.334 0.038 0.091 0.096 0.175 0.172 0.248 0.071 0.067 0.159 0.12 0.257 0.154 0.101 0.036 0.21 0.054 0.319 0.053 0.063 0.001 0.126-0.003 0.189-0.011 0.102-0.011 0.2-0.041 0.287-0.089 0.043-0.024 0.084-0.052 0.122-0.082 0.016-0.013 0.037-0.021 0.059-0.021z"></path>
<path fill="" style="fill: var(--color1)" d="M24.245 27.453c0.002 0.14-0.026 0.28-0.084 0.412-0.051 0.119-0.13 0.228-0.233 0.32s-0.228 0.163-0.366 0.21c-0.303 0.099-0.639 0.099-0.942 0-0.137-0.048-0.261-0.119-0.364-0.211-0.103-0.093-0.183-0.203-0.236-0.323-0.112-0.267-0.112-0.558 0-0.825 0.053-0.12 0.133-0.23 0.236-0.324 0.104-0.088 0.228-0.157 0.364-0.203 0.303-0.101 0.639-0.101 0.942 0 0.138 0.048 0.262 0.119 0.366 0.211 0.102 0.092 0.182 0.201 0.234 0.319 0.057 0.133 0.086 0.273 0.084 0.414zM23.919 27.453c0.002-0.112-0.018-0.224-0.059-0.331-0.035-0.091-0.091-0.176-0.166-0.248-0.073-0.068-0.162-0.121-0.262-0.156-0.22-0.072-0.465-0.072-0.685 0-0.1 0.035-0.189 0.088-0.262 0.156-0.076 0.072-0.133 0.156-0.167 0.248-0.079 0.216-0.079 0.447 0 0.662 0.035 0.092 0.092 0.176 0.167 0.248 0.073 0.068 0.162 0.121 0.262 0.155 0.221 0.071 0.464 0.071 0.685 0 0.1-0.034 0.189-0.087 0.262-0.155 0.074-0.072 0.131-0.156 0.166-0.248 0.042-0.107 0.061-0.219 0.059-0.331z"></path>
<path fill="" style="fill: var(--color1)" d="M26.687 27.8l0.032 0.074c0.012-0.026 0.023-0.050 0.036-0.074 0.012-0.025 0.025-0.049 0.040-0.073l0.792-1.23c0.015-0.021 0.029-0.034 0.045-0.038 0.021-0.006 0.043-0.008 0.065-0.007h0.234v2h-0.277v-1.471c0-0.019 0-0.040 0-0.062-0.002-0.023-0.002-0.046 0-0.069l-0.797 1.247c-0.010 0.019-0.026 0.034-0.047 0.046s-0.044 0.017-0.068 0.017h-0.045c-0.024 0-0.048-0.005-0.068-0.017s-0.037-0.027-0.046-0.046l-0.82-1.255c0 0.024 0 0.048 0 0.072s0 0.045 0 0.064v1.471h-0.268v-1.997h0.234c0.022-0.001 0.044 0.001 0.065 0.007 0.019 0.008 0.035 0.022 0.043 0.038l0.809 1.231c0.016 0.023 0.029 0.047 0.040 0.072z"></path>
<path fill="" style="fill: var(--color1)" d="M29.667 27.701v0.749h-0.31v-1.998h0.691c0.13-0.002 0.261 0.013 0.386 0.044 0.1 0.024 0.193 0.067 0.273 0.124 0.069 0.054 0.122 0.121 0.155 0.196 0.037 0.082 0.054 0.168 0.053 0.256 0.001 0.088-0.018 0.175-0.057 0.256-0.037 0.077-0.094 0.145-0.167 0.2-0.079 0.060-0.173 0.105-0.274 0.132-0.121 0.033-0.247 0.049-0.373 0.046l-0.375-0.005zM29.667 27.486h0.375c0.081 0.001 0.163-0.009 0.24-0.030 0.064-0.018 0.123-0.048 0.174-0.086 0.047-0.037 0.083-0.082 0.105-0.132 0.025-0.053 0.038-0.111 0.037-0.168 0.004-0.056-0.007-0.111-0.031-0.163s-0.061-0.098-0.108-0.136c-0.118-0.079-0.267-0.117-0.417-0.107h-0.375v0.823z"></path>
<path fill="" style="fill: var(--color1)" d="M33.833 28.453h-0.245c-0.025 0.001-0.049-0.006-0.068-0.019-0.018-0.012-0.031-0.028-0.040-0.046l-0.211-0.483h-1.058l-0.218 0.483c-0.008 0.018-0.021 0.033-0.039 0.045-0.020 0.014-0.044 0.021-0.070 0.020h-0.245l0.93-2.001h0.322l0.942 2.001zM32.298 27.71h0.874l-0.369-0.814c-0.028-0.061-0.051-0.124-0.070-0.188l-0.036 0.105c-0.011 0.032-0.023 0.061-0.034 0.085l-0.366 0.813z"></path>
<path fill="" style="fill: var(--color1)" d="M35.172 26.461c0.019 0.009 0.034 0.021 0.046 0.036l1.356 1.508c0-0.024 0-0.048 0-0.070s0-0.045 0-0.066v-1.417h0.277v2.001h-0.155c-0.022 0.001-0.044-0.003-0.064-0.012-0.019-0.010-0.036-0.022-0.050-0.037l-1.354-1.507c0.001 0.023 0.001 0.046 0 0.069 0 0.023 0 0.042 0 0.061v1.426h-0.277v-2.001h0.164c0.019-0 0.038 0.003 0.056 0.009z"></path>
<path fill="" style="fill: var(--color1)" d="M39.136 27.657v0.794h-0.31v-0.794l-0.857-1.205h0.277c0.024-0.001 0.048 0.005 0.067 0.017 0.017 0.013 0.031 0.028 0.042 0.045l0.536 0.777c0.022 0.033 0.040 0.064 0.056 0.093s0.028 0.057 0.039 0.085l0.040-0.086c0.015-0.031 0.033-0.062 0.053-0.091l0.528-0.783c0.011-0.016 0.025-0.030 0.040-0.042 0.018-0.014 0.042-0.021 0.067-0.020h0.28l-0.858 1.21z"></path>
<path fill="" style="fill: var(--color1)" d="M26.534 23.094c0.135 0.015 0.271 0.026 0.409 0.037 2.091-0.799 3.86-2.107 5.086-3.761s1.854-3.579 1.806-5.536l-2.304-1.969c0.469 2.083 0.249 4.237-0.633 6.22s-2.393 3.717-4.363 5.008z"></path>
<path fill="" style="fill: var(--color1)" d="M25.711 23.003l0.062 0.011c2.105-1.287 3.71-3.083 4.608-5.157s1.046-4.331 0.426-6.478l-3.282-2.804c1.328 2.305 1.862 4.885 1.541 7.439s-1.484 4.978-3.354 6.99z"></path>
<path fill="" style="fill: var(--color1)" d="M36.842 16.147c-0.558 2.15-1.912 4.089-3.862 5.529-0.569 0.423-1.184 0.8-1.835 1.125 1.588-0.399 3.047-1.104 4.266-2.060s2.163-2.14 2.762-3.458l-1.331-1.136z"></path>
<path fill="" style="fill: var(--color1)" d="M36.32 15.831l-1.895-1.619c-0.036 1.846-0.651 3.65-1.779 5.225s-2.73 2.862-4.638 3.729h0.009c0.425-0 0.85-0.022 1.272-0.065 1.783-0.622 3.359-1.611 4.585-2.88s2.067-2.777 2.445-4.39z"></path>
<path fill="" style="fill: var(--color1)" d="M25.985 7.391l-2.261-1.934c-2.021 0.667-3.76 1.84-4.988 3.366s-1.888 3.332-1.895 5.183v0c0.008 2.046 0.813 4.031 2.29 5.641s3.54 2.754 5.863 3.25c2.074-2.159 3.288-4.826 3.466-7.614s-0.689-5.553-2.476-7.891z"></path>
<path fill="" style="fill: var(--color1)" d="M41.544 15.533c-0.008-2.427-1.14-4.753-3.149-6.469s-4.731-2.684-7.572-2.691c-1.313-0.001-2.614 0.206-3.839 0.61l13.843 11.828c0.474-1.046 0.717-2.157 0.716-3.278z"></path>
</symbol>
<symbol id="icon-Logo-4" viewBox="0 0 58 32">
<path fill="" style="fill: var(--color1)" d="M13.518 12.484h-0.002c-1.339 0-2.425 0.979-2.425 2.186v0.001c0 1.208 1.086 2.186 2.425 2.186h0.002c1.339 0 2.425-0.979 2.425-2.186v-0.001c0-1.208-1.086-2.186-2.425-2.186z"></path>
<path fill="" style="fill: var(--color1)" d="M31.417 11.786c-0.004-1.677-0.744-3.285-2.059-4.471s-3.098-1.854-4.958-1.858v0c-1.861 0.003-3.644 0.671-4.96 1.857s-2.057 2.794-2.061 4.472v9.249c0 0 14.037-1.41 14.039-9.247v-0.001z"></path>
<path fill="" style="fill: var(--color1)" d="M6.175 24.070c0.003 1.167 0.519 2.285 1.434 3.111s2.155 1.291 3.45 1.294c1.294-0.003 2.534-0.468 3.449-1.293s1.431-1.943 1.435-3.11v-6.435c0 0-9.767 0.982-9.767 6.434zM11.059 25.223c-0.253 0-0.5-0.068-0.71-0.194s-0.374-0.307-0.471-0.517c-0.097-0.211-0.122-0.443-0.073-0.666s0.171-0.429 0.35-0.59c0.179-0.161 0.407-0.271 0.655-0.316s0.505-0.022 0.739 0.066c0.234 0.087 0.433 0.235 0.574 0.425s0.216 0.413 0.216 0.641c0.001 0.152-0.032 0.302-0.096 0.443s-0.158 0.268-0.277 0.376c-0.119 0.108-0.26 0.193-0.415 0.251s-0.322 0.088-0.491 0.088v-0.004z"></path>
<path fill="" style="fill: var(--color1)" d="M19.991 23.149v2.395h-0.493v-2.395h0.493zM20.945 24.173v0.385h-1.089v-0.385h1.089zM21.060 23.149v0.387h-1.204v-0.387h1.204zM23.313 24.291v0.113c0 0.182-0.025 0.345-0.074 0.49s-0.119 0.268-0.209 0.37c-0.090 0.101-0.197 0.178-0.322 0.232-0.124 0.054-0.262 0.081-0.413 0.081-0.15 0-0.288-0.027-0.413-0.081-0.124-0.054-0.231-0.131-0.322-0.232-0.091-0.102-0.162-0.225-0.212-0.37-0.049-0.145-0.074-0.308-0.074-0.49v-0.113c0-0.183 0.025-0.346 0.074-0.49 0.049-0.145 0.119-0.268 0.209-0.37 0.091-0.102 0.198-0.18 0.322-0.234 0.125-0.054 0.263-0.081 0.413-0.081 0.151 0 0.289 0.027 0.413 0.081 0.125 0.054 0.232 0.132 0.322 0.234 0.091 0.102 0.161 0.225 0.211 0.37 0.050 0.144 0.076 0.307 0.076 0.49zM22.815 24.404v-0.117c0-0.127-0.012-0.239-0.035-0.335s-0.057-0.178-0.102-0.243-0.1-0.115-0.165-0.148c-0.065-0.034-0.139-0.051-0.222-0.051s-0.157 0.017-0.222 0.051c-0.064 0.033-0.118 0.082-0.163 0.148-0.044 0.066-0.077 0.147-0.1 0.243s-0.035 0.208-0.035 0.335v0.117c0 0.126 0.012 0.238 0.035 0.336 0.023 0.096 0.057 0.178 0.102 0.245 0.045 0.066 0.1 0.116 0.165 0.15s0.139 0.051 0.222 0.051c0.083 0 0.157-0.017 0.222-0.051s0.119-0.084 0.163-0.15c0.044-0.067 0.077-0.149 0.1-0.245 0.023-0.098 0.035-0.209 0.035-0.336zM24.915 24.918c0-0.043-0.007-0.081-0.020-0.115-0.012-0.035-0.035-0.067-0.069-0.095-0.034-0.030-0.082-0.059-0.143-0.087s-0.141-0.058-0.238-0.089c-0.109-0.035-0.212-0.075-0.309-0.118-0.096-0.044-0.182-0.095-0.257-0.153-0.073-0.059-0.132-0.128-0.174-0.206-0.042-0.078-0.062-0.168-0.062-0.271 0-0.1 0.022-0.19 0.066-0.271 0.044-0.082 0.105-0.152 0.184-0.211 0.079-0.059 0.172-0.105 0.28-0.136 0.109-0.032 0.227-0.048 0.357-0.048 0.177 0 0.331 0.032 0.462 0.095s0.234 0.151 0.306 0.262c0.073 0.111 0.11 0.237 0.11 0.38h-0.49c0-0.070-0.015-0.132-0.044-0.184-0.029-0.054-0.072-0.096-0.132-0.127-0.058-0.031-0.132-0.046-0.22-0.046-0.085 0-0.157 0.013-0.214 0.040-0.057 0.025-0.1 0.060-0.128 0.104-0.029 0.043-0.043 0.091-0.043 0.145 0 0.041 0.010 0.077 0.030 0.11 0.021 0.033 0.052 0.064 0.092 0.092s0.090 0.055 0.15 0.081c0.059 0.025 0.128 0.050 0.206 0.074 0.13 0.039 0.245 0.084 0.344 0.133 0.1 0.049 0.183 0.105 0.25 0.166s0.117 0.131 0.151 0.209c0.034 0.078 0.051 0.166 0.051 0.265 0 0.104-0.020 0.197-0.061 0.28s-0.099 0.152-0.176 0.209c-0.077 0.057-0.168 0.1-0.275 0.13s-0.225 0.044-0.357 0.044c-0.118 0-0.235-0.015-0.35-0.046-0.115-0.032-0.22-0.079-0.314-0.143-0.093-0.064-0.168-0.145-0.224-0.243s-0.084-0.215-0.084-0.35h0.495c0 0.075 0.012 0.138 0.035 0.189s0.055 0.093 0.097 0.125c0.043 0.032 0.093 0.055 0.151 0.069 0.059 0.014 0.124 0.021 0.194 0.021 0.085 0 0.156-0.012 0.211-0.036 0.056-0.024 0.097-0.058 0.123-0.1 0.027-0.043 0.041-0.091 0.041-0.145zM26.815 23.149v2.395h-0.492v-2.395h0.492zM27.552 23.149v0.387h-1.954v-0.387h1.954zM29.44 25.159v0.385h-1.275v-0.385h1.275zM28.326 23.149v2.395h-0.493v-2.395h0.493zM29.274 24.125v0.375h-1.109v-0.375h1.109zM29.438 23.149v0.387h-1.273v-0.387h1.273zM29.728 23.149h0.893c0.183 0 0.34 0.027 0.472 0.082 0.133 0.055 0.235 0.136 0.306 0.243s0.107 0.24 0.107 0.396c0 0.128-0.022 0.238-0.066 0.331-0.043 0.091-0.104 0.167-0.183 0.229-0.078 0.060-0.169 0.109-0.275 0.145l-0.156 0.082h-0.776l-0.003-0.385h0.577c0.087 0 0.158-0.015 0.215-0.046s0.1-0.073 0.128-0.128c0.030-0.055 0.044-0.118 0.044-0.191 0-0.077-0.014-0.143-0.043-0.199s-0.072-0.099-0.13-0.128c-0.058-0.030-0.131-0.044-0.219-0.044h-0.4v2.008h-0.493v-2.395zM31.067 25.544l-0.546-1.067 0.521-0.003 0.553 1.048v0.023h-0.528zM33.657 24.691h-0.61v-0.385h0.61c0.094 0 0.171-0.015 0.23-0.046 0.059-0.032 0.102-0.076 0.13-0.132s0.041-0.119 0.041-0.189c0-0.071-0.014-0.138-0.041-0.199s-0.071-0.111-0.13-0.148-0.136-0.056-0.23-0.056h-0.439v2.008h-0.493v-2.395h0.933c0.187 0 0.348 0.034 0.482 0.102 0.135 0.067 0.238 0.16 0.309 0.278s0.107 0.254 0.107 0.406c0 0.155-0.036 0.288-0.107 0.401s-0.174 0.2-0.309 0.262c-0.134 0.061-0.294 0.092-0.482 0.092zM36.502 25.159v0.385h-1.275v-0.385h1.275zM35.389 23.149v2.395h-0.493v-2.395h0.493zM36.336 24.125v0.375h-1.109v-0.375h1.109zM36.501 23.149v0.387h-1.273v-0.387h1.273zM37.894 23.149v2.395h-0.492v-2.395h0.492zM38.631 23.149v0.387h-1.954v-0.387h1.954zM40.519 25.159v0.385h-1.275v-0.385h1.275zM39.405 23.149v2.395h-0.493v-2.395h0.493zM40.353 24.125v0.375h-1.109v-0.375h1.109zM40.517 23.149v0.387h-1.273v-0.387h1.273zM40.807 23.149h0.893c0.183 0 0.34 0.027 0.472 0.082 0.133 0.055 0.235 0.136 0.306 0.243s0.107 0.24 0.107 0.396c0 0.128-0.022 0.238-0.066 0.331-0.043 0.091-0.104 0.167-0.183 0.229-0.078 0.060-0.169 0.109-0.275 0.145l-0.156 0.082h-0.776l-0.003-0.385h0.577c0.087 0 0.158-0.015 0.215-0.046s0.1-0.073 0.128-0.128c0.030-0.055 0.044-0.118 0.044-0.191 0-0.077-0.014-0.143-0.043-0.199s-0.072-0.099-0.13-0.128c-0.058-0.030-0.131-0.044-0.219-0.044h-0.4v2.008h-0.493v-2.395zM42.146 25.544l-0.546-1.067 0.521-0.003 0.553 1.048v0.023h-0.528zM44.211 24.918c0-0.043-0.007-0.081-0.020-0.115-0.012-0.035-0.035-0.067-0.069-0.095-0.034-0.030-0.082-0.059-0.143-0.087s-0.141-0.058-0.238-0.089c-0.109-0.035-0.212-0.075-0.309-0.118-0.096-0.044-0.182-0.095-0.257-0.153-0.074-0.059-0.132-0.128-0.174-0.206-0.042-0.078-0.062-0.168-0.062-0.271 0-0.1 0.022-0.19 0.066-0.271 0.044-0.082 0.105-0.152 0.184-0.211 0.079-0.059 0.172-0.105 0.28-0.136 0.109-0.032 0.228-0.048 0.357-0.048 0.176 0 0.331 0.032 0.462 0.095s0.234 0.151 0.306 0.262c0.073 0.111 0.11 0.237 0.11 0.38h-0.49c0-0.070-0.015-0.132-0.044-0.184-0.029-0.054-0.072-0.096-0.132-0.127-0.058-0.031-0.132-0.046-0.22-0.046-0.086 0-0.157 0.013-0.214 0.040-0.057 0.025-0.1 0.060-0.128 0.104-0.029 0.043-0.043 0.091-0.043 0.145 0 0.041 0.010 0.077 0.030 0.11 0.021 0.033 0.052 0.064 0.092 0.092s0.090 0.055 0.15 0.081c0.059 0.025 0.128 0.050 0.206 0.074 0.13 0.039 0.245 0.084 0.344 0.133 0.1 0.049 0.183 0.105 0.25 0.166s0.117 0.131 0.151 0.209c0.034 0.078 0.051 0.166 0.051 0.265 0 0.104-0.020 0.197-0.061 0.28s-0.099 0.152-0.176 0.209c-0.077 0.057-0.168 0.1-0.275 0.13s-0.225 0.044-0.357 0.044c-0.118 0-0.235-0.015-0.35-0.046-0.115-0.032-0.22-0.079-0.314-0.143-0.093-0.064-0.168-0.145-0.224-0.243s-0.084-0.215-0.084-0.35h0.495c0 0.075 0.011 0.138 0.035 0.189s0.055 0.093 0.097 0.125c0.043 0.032 0.093 0.055 0.151 0.069 0.059 0.014 0.124 0.021 0.194 0.021 0.086 0 0.156-0.012 0.211-0.036 0.056-0.024 0.097-0.058 0.123-0.1 0.027-0.043 0.041-0.091 0.041-0.145z"></path>
</symbol>
<symbol id="icon-Logo-5" viewBox="0 0 58 32">
<path fill="" style="fill: var(--color1)" d="M15.041 25.315c0.138 0.154 0.211 0.346 0.207 0.543 0.007 0.129-0.018 0.257-0.074 0.376s-0.14 0.225-0.248 0.31c-0.268 0.182-0.599 0.271-0.934 0.251h-1.642v-3.443h1.608c0.318-0.019 0.633 0.062 0.891 0.229 0.104 0.078 0.186 0.177 0.24 0.289s0.079 0.233 0.072 0.355c0.009 0.19-0.057 0.377-0.187 0.526-0.125 0.137-0.297 0.232-0.489 0.269 0.218 0.036 0.414 0.14 0.555 0.294zM13.115 24.796h0.688c0.156 0.010 0.311-0.030 0.437-0.114 0.052-0.042 0.092-0.094 0.117-0.153s0.036-0.121 0.030-0.184c0.005-0.062-0.006-0.125-0.031-0.183s-0.064-0.111-0.115-0.153c-0.129-0.087-0.289-0.128-0.45-0.116h-0.676v0.903zM14.307 26.116c0.055-0.043 0.099-0.097 0.127-0.158s0.040-0.126 0.036-0.192c0.004-0.066-0.009-0.133-0.037-0.194s-0.073-0.116-0.129-0.159c-0.134-0.090-0.3-0.134-0.467-0.124h-0.721v0.947h0.73c0.164 0.009 0.327-0.034 0.461-0.119z"></path>
<path fill="" style="fill: var(--color1)" d="M18.329 26.795l-0.895-1.345h-0.336v1.345h-0.77v-3.443h1.457c0.367-0.023 0.73 0.082 1.014 0.293 0.204 0.187 0.326 0.433 0.346 0.694s-0.065 0.52-0.238 0.73c-0.18 0.185-0.425 0.309-0.695 0.35l0.953 1.376h-0.837zM17.098 24.981h0.63c0.437 0 0.656-0.174 0.656-0.521 0.004-0.071-0.008-0.142-0.035-0.209s-0.070-0.127-0.125-0.178c-0.138-0.103-0.316-0.154-0.495-0.14h-0.637l0.007 1.048z"></path>
<path fill="" style="fill: var(--color1)" d="M22.536 26.102h-1.534l-0.271 0.693h-0.807l1.409-3.404h0.872l1.403 3.404h-0.807l-0.265-0.693zM22.331 25.581l-0.561-1.453-0.56 1.453h1.121z"></path>
<path fill="" style="fill: var(--color1)" d="M27.803 26.795h-0.764l-1.713-2.341v2.341h-0.762v-3.443h0.762l1.713 2.355v-2.355h0.764v3.443z"></path>
<path fill="" style="fill: var(--color1)" d="M32.163 25.971c-0.158 0.26-0.399 0.471-0.691 0.607-0.333 0.151-0.702 0.226-1.074 0.217h-1.36v-3.443h1.36c0.372-0.009 0.741 0.064 1.074 0.212 0.293 0.133 0.533 0.342 0.691 0.6 0.157 0.28 0.239 0.589 0.239 0.903s-0.082 0.623-0.239 0.903zM31.289 25.889c0.218-0.229 0.338-0.52 0.338-0.822s-0.12-0.593-0.338-0.822c-0.264-0.207-0.607-0.312-0.957-0.293h-0.531v2.228h0.531c0.349 0.020 0.693-0.085 0.957-0.293z"></path>
<path fill="" style="fill: var(--color1)" d="M23.014 4.203c0 0 9.862 3.352 9.653 8.202v8.204c0 0-9.855-3.354-9.649-8.204l-0.004-8.202z"></path>
<path fill="" style="fill: var(--color1)" d="M41.453 18.689c1.862-1.154 4.017-1.869 6.266-2.079v-2.568c-2.591 0.899-4.79 2.529-6.266 4.647z"></path>
<path fill="" style="fill: var(--color1)" d="M40.334 19.463c1.525-2.763 4.167-4.896 7.385-5.959v-7.4c0 0-14.045 4.775-13.748 11.682v11.681c0 0 0.626-0.214 1.61-0.614 0-0.373 0-0.75 0.045-1.129 0.291-3.207 1.984-6.178 4.708-8.261z"></path>
<path fill="" style="fill: var(--color1)" d="M38.999 23.802c0.074-0.81 0.238-1.611 0.491-2.392-1.696 1.799-2.723 4.031-2.937 6.383-0.021 0.222-0.032 0.444-0.037 0.673 0.798-0.345 1.726-0.775 2.701-1.282-0.249-1.113-0.322-2.251-0.219-3.382z"></path>
<path fill="" style="fill: var(--color1)" d="M39.557 23.844c-0.093 1.023-0.035 2.053 0.174 3.063 3.837-2.067 8.149-5.261 7.983-9.121v-0.336c-2.742 0.276-5.307 1.355-7.301 3.071-0.467 1.063-0.755 2.183-0.856 3.323z"></path>
</symbol>
<symbol id="icon-Logo-6" viewBox="0 0 58 32">
<path fill="" style="fill: var(--color1)" d="M30.052 15.811c-0.249-0.332-0.369-0.724-0.34-1.118v-1.621c0-0.497 0.113-0.875 0.338-1.133s0.613-0.387 1.162-0.386c0.516 0 0.882 0.11 1.099 0.33 0.236 0.281 0.351 0.624 0.325 0.97v0.381h-0.923v-0.386c0.003-0.126-0.006-0.253-0.027-0.378-0.013-0.085-0.060-0.165-0.132-0.224-0.095-0.064-0.214-0.096-0.335-0.087-0.126-0.008-0.252 0.025-0.352 0.092-0.080 0.066-0.134 0.153-0.153 0.247-0.026 0.132-0.039 0.267-0.036 0.401v1.968c-0.015 0.19 0.026 0.38 0.119 0.553 0.046 0.058 0.11 0.105 0.184 0.134s0.157 0.040 0.238 0.031c0.118 0.008 0.236-0.024 0.327-0.089 0.075-0.064 0.124-0.149 0.138-0.239 0.022-0.131 0.031-0.262 0.029-0.394v-0.399h0.923v0.365c0.026 0.361-0.086 0.719-0.319 1.019-0.212 0.241-0.573 0.361-1.105 0.361s-0.933-0.129-1.16-0.396z"></path>
<path fill="" style="fill: var(--color1)" d="M33.895 15.827c-0.233-0.252-0.35-0.62-0.35-1.107v-1.706c0-0.482 0.117-0.846 0.35-1.094s0.623-0.371 1.17-0.369c0.543 0 0.931 0.123 1.164 0.369 0.233 0.247 0.352 0.612 0.352 1.094v1.706c0 0.482-0.118 0.851-0.356 1.105s-0.623 0.381-1.16 0.381-0.935-0.129-1.17-0.379zM35.495 15.418c0.084-0.158 0.122-0.331 0.111-0.505v-2.088c0.011-0.17-0.027-0.34-0.109-0.495-0.047-0.060-0.112-0.107-0.189-0.136s-0.161-0.039-0.243-0.029c-0.083-0.010-0.167 0-0.244 0.029s-0.142 0.076-0.19 0.136c-0.084 0.154-0.122 0.325-0.111 0.495v2.098c-0.012 0.174 0.026 0.347 0.111 0.505 0.054 0.053 0.12 0.096 0.195 0.125s0.155 0.044 0.237 0.044 0.163-0.015 0.237-0.044c0.075-0.029 0.141-0.072 0.195-0.125v-0.010z"></path>
<path fill="" style="fill: var(--color1)" d="M37.691 11.602h0.994l0.747 3.147 0.765-3.147h0.967l0.097 4.542h-0.715l-0.076-3.157-0.738 3.157h-0.573l-0.765-3.168-0.071 3.168h-0.723l0.090-4.542z"></path>
<path fill="" style="fill: var(--color1)" d="M42.376 11.602h1.548c0.892 0 1.338 0.43 1.338 1.29 0 0.824-0.47 1.235-1.409 1.234h-0.528v2.019h-0.956l0.006-4.542zM43.699 13.543c0.094 0.010 0.19 0.003 0.281-0.022s0.174-0.066 0.245-0.122c0.11-0.153 0.158-0.334 0.138-0.513 0.005-0.139-0.010-0.277-0.046-0.412-0.014-0.045-0.038-0.088-0.070-0.125s-0.074-0.068-0.121-0.091c-0.133-0.055-0.279-0.080-0.426-0.073h-0.371v1.357h0.371z"></path>
<path fill="" style="fill: var(--color1)" d="M46.641 11.602h1.026l1.053 4.542h-0.891l-0.208-1.047h-0.916l-0.214 1.047h-0.904l1.053-4.542zM47.518 14.571l-0.357-1.907-0.357 1.907h0.715z"></path>
<path fill="" style="fill: var(--color1)" d="M49.571 11.602h0.669l1.281 2.591v-2.591h0.793v4.542h-0.636l-1.288-2.705v2.705h-0.82l0.002-4.542z"></path>
<path fill="" style="fill: var(--color1)" d="M54.172 14.412l-1.065-2.804h0.896l0.65 1.801 0.61-1.801h0.877l-1.051 2.804v1.732h-0.917v-1.732z"></path>
<path fill="" style="fill: var(--color1)" d="M31.527 18.13v0.237h-0.78v1.846h-0.327v-1.846h-0.784v-0.237h1.89z"></path>
<path fill="" style="fill: var(--color1)" d="M33.972 20.213h-0.252c-0.026 0.001-0.051-0.006-0.071-0.020-0.019-0.012-0.034-0.029-0.042-0.048l-0.226-0.495h-1.082l-0.226 0.495c-0.006 0.021-0.018 0.040-0.034 0.056-0.020 0.014-0.045 0.021-0.071 0.020h-0.252l0.956-2.083h0.333l0.967 2.075zM32.389 19.439h0.902l-0.382-0.848c-0.028-0.064-0.052-0.13-0.071-0.196-0.013 0.040-0.025 0.078-0.036 0.11l-0.034 0.087-0.379 0.846z"></path>
<path fill="" style="fill: var(--color1)" d="M35.619 20.008c0.060 0.003 0.12 0.003 0.18 0 0.052-0.005 0.103-0.013 0.153-0.025 0.047-0.010 0.093-0.023 0.138-0.038 0.042-0.015 0.084-0.033 0.128-0.051v-0.468h-0.382c-0.009 0-0.019-0.001-0.028-0.004s-0.017-0.007-0.024-0.013c-0.006-0.005-0.011-0.011-0.015-0.017s-0.005-0.014-0.005-0.021v-0.16h0.742v0.798c-0.061 0.037-0.124 0.070-0.191 0.099-0.068 0.029-0.139 0.053-0.212 0.071-0.078 0.020-0.158 0.034-0.239 0.043-0.093 0.009-0.186 0.013-0.279 0.013-0.165 0.001-0.328-0.025-0.482-0.078-0.143-0.050-0.273-0.124-0.382-0.218-0.106-0.095-0.19-0.207-0.247-0.33-0.060-0.138-0.090-0.285-0.088-0.432-0.002-0.148 0.027-0.296 0.086-0.435 0.055-0.123 0.139-0.236 0.247-0.33 0.109-0.094 0.239-0.167 0.382-0.216 0.164-0.053 0.337-0.079 0.512-0.078 0.089-0 0.178 0.006 0.266 0.018 0.078 0.011 0.154 0.029 0.227 0.053 0.067 0.022 0.131 0.049 0.191 0.082 0.059 0.033 0.114 0.069 0.166 0.109l-0.092 0.129c-0.007 0.012-0.018 0.022-0.031 0.029s-0.028 0.011-0.044 0.011c-0.021-0.001-0.042-0.006-0.059-0.017-0.029-0.013-0.059-0.030-0.094-0.049-0.041-0.022-0.083-0.041-0.128-0.056-0.057-0.020-0.116-0.035-0.176-0.046-0.080-0.013-0.161-0.019-0.243-0.018-0.126-0.001-0.251 0.018-0.369 0.058-0.106 0.037-0.202 0.093-0.281 0.165-0.079 0.075-0.14 0.163-0.178 0.259-0.085 0.226-0.085 0.469 0 0.694 0.042 0.098 0.107 0.187 0.191 0.262 0.078 0.071 0.174 0.128 0.279 0.165 0.122 0.036 0.25 0.050 0.378 0.041z"></path>
<path fill="" style="fill: var(--color1)" d="M38.666 19.975h1.044v0.238h-1.363v-2.083h0.327l-0.008 1.846z"></path>
<path fill="" style="fill: var(--color1)" d="M40.796 20.213h-0.327v-2.083h0.327v2.083z"></path>
<path fill="" style="fill: var(--color1)" d="M42.011 18.14c0.019 0.010 0.036 0.023 0.050 0.038l1.397 1.57c-0.002-0.025-0.002-0.050 0-0.074 0-0.023 0-0.046 0-0.068v-1.485h0.285v2.091h-0.164c-0.024 0.002-0.049-0.002-0.071-0.012-0.020-0.010-0.037-0.024-0.052-0.040l-1.395-1.569c0 0.025 0 0.048 0 0.071s0 0.045 0 0.064v1.485h-0.273v-2.083h0.17c0.018 0 0.037 0.003 0.053 0.010z"></path>
<path fill="" style="fill: var(--color1)" d="M46.149 18.13v0.229h-1.158v0.688h0.938v0.221h-0.938v0.711h1.158v0.229h-1.495v-2.078h1.495z"></path>
<path fill="" style="fill: var(--color1)" d="M11.899 5.265l14.513 3.556v12.461l-14.513-3.554v-12.462zM10.968 4.203v14.13l16.373 4.013v-14.128l-16.373-4.014z"></path>
<path fill="" style="fill: var(--color1)" d="M19.743 28.905l-16.375-4.016v-14.128l16.375 4.014v14.13z"></path>
<path fill="" style="fill: var(--color1)" d="M11.24 5.105l14.324 3.511-6.092 5.258-14.326-3.513 6.094-5.256zM10.968 4.203l-7.6 6.558 16.375 4.014 7.598-6.558-16.373-4.014z"></path>
<path fill="" style="fill: var(--color1)" d="M20.665 28.11l6.677-5.763-6.677-1.638v7.4z"></path>
</symbol>
<symbol id="icon-antenna-1" viewBox="0 0 32 32">
<path fill="#2e2f42" style="fill: var(--color1, #2e2f42)" d="M30.773 22.098l-8.443-8.505 0.937-4.615c0.242 0.094 0.499 0.144 0.758 0.146h0.006c1.192 0.014 2.17-0.941 2.184-2.133s-0.941-2.17-2.133-2.184c-1.192-0.014-2.17 0.941-2.184 2.133-0.003 0.255 0.039 0.509 0.125 0.749l-4.96 0.605-8.091-8.133c-0.099-0.101-0.235-0.159-0.377-0.16-0.14 0.001-0.274 0.056-0.373 0.155l-1.513 1.504c-0.208 0.208-0.208 0.546 0 0.754l0.814 0.826c-3.153 5.798-2.129 12.978 2.519 17.663 0.043 0.041 0.092 0.074 0.146 0.098-0.034 0.18-0.051 0.364-0.052 0.547v6.187h-6.4c-1.472 0.002-2.665 1.195-2.667 2.667v1.067c0 0.295 0.239 0.533 0.533 0.533h24.533c0.295 0 0.533-0.239 0.533-0.533v-1.067c-0.002-1.472-1.195-2.665-2.667-2.667h-6.4v-2.742c1.003 0.21 2.024 0.317 3.049 0.32 2.458-0.003 4.877-0.615 7.040-1.783l0.818 0.823c0.099 0.101 0.235 0.159 0.377 0.16 0.14-0.001 0.274-0.056 0.373-0.155l1.513-1.504c0.208-0.208 0.208-0.546 0-0.754zM23.28 6.233c0.418-0.415 1.093-0.414 1.509 0.004s0.414 1.093-0.004 1.508c-0.2 0.199-0.47 0.31-0.752 0.31h-0.003c-0.589-0.003-1.064-0.483-1.061-1.072 0.002-0.282 0.115-0.552 0.314-0.751h-0.002zM22.024 9.738l-0.598 2.946-1.175-1.182 1.774-1.763zM21.419 8.836l-1.92 1.909-1.485-1.493 3.405-0.415zM24.004 28.8c0.884 0 1.6 0.716 1.6 1.6v0.533h-23.467v-0.533c0-0.884 0.716-1.6 1.6-1.6h20.267zM16.537 26.667v1.067h-5.333v-1.067h5.333zM11.204 25.6v-4.053c0-1.294 1.196-2.347 2.667-2.347s2.667 1.053 2.667 2.347v4.053h-5.333zM17.604 23.904v-2.357c0-1.882-1.675-3.413-3.733-3.413-1.331-0.020-2.576 0.657-3.281 1.786-4.058-4.274-4.971-10.645-2.279-15.887l18.602 18.708c-2.872 1.461-6.165 1.873-9.309 1.163zM28.893 23.22l-21.057-21.181 0.755-0.752 7.935 7.98c0.004 0 0.006 0.007 0.010 0.010l13.115 13.191-0.757 0.752z"></path>
<path fill="#4d5ae5" style="fill: var(--color2, #4d5ae5)" d="M13.876 20.267h-0.005c-0.884-0.001-1.601 0.714-1.602 1.598s0.714 1.601 1.598 1.602h0.005c0.884 0.001 1.601-0.714 1.602-1.598s-0.714-1.601-1.598-1.602zM14.249 22.245c-0.1 0.1-0.236 0.156-0.378 0.155-0.295-0.002-0.532-0.242-0.531-0.536 0.001-0.141 0.057-0.276 0.157-0.375s0.233-0.154 0.373-0.155c0.295 0.002 0.532 0.242 0.531 0.536-0.001 0.141-0.057 0.276-0.157 0.375h0.005z"></path>
</symbol>
<symbol id="icon-astronaut-1" viewBox="0 0 32 32">
<path fill="#4d5ae5" style="fill: var(--color2, #4d5ae5)" d="M31.974 4.524c-0.063-0.193-0.229-0.333-0.43-0.363l-1.91-0.278-0.855-1.731c-0.179-0.365-0.777-0.365-0.956 0l-0.855 1.731-1.91 0.278c-0.201 0.029-0.367 0.17-0.431 0.363-0.062 0.193-0.011 0.405 0.135 0.547l1.383 1.348-0.326 1.903c-0.034 0.2 0.048 0.402 0.212 0.522 0.166 0.121 0.382 0.135 0.562 0.040l1.709-0.899 1.709 0.899c0.078 0.041 0.164 0.061 0.249 0.061 0.11 0 0.221-0.034 0.314-0.102 0.164-0.119 0.246-0.322 0.212-0.522l-0.326-1.903 1.383-1.348c0.145-0.142 0.197-0.354 0.135-0.547zM29.511 5.851c-0.125 0.122-0.183 0.299-0.153 0.472l0.191 1.114-1-0.526c-0.078-0.041-0.163-0.061-0.249-0.061s-0.17 0.020-0.249 0.061l-1.001 0.526 0.191-1.114c0.030-0.173-0.028-0.349-0.153-0.472l-0.81-0.789 1.119-0.163c0.174-0.025 0.324-0.134 0.402-0.292l0.5-1.013 0.5 1.013c0.078 0.157 0.228 0.267 0.402 0.292l1.119 0.163-0.809 0.789z"></path>
<path fill="#4d5ae5" style="fill: var(--color2, #4d5ae5)" d="M26.134 20.522h-1.067v1.067h1.067v-1.067z"></path>
<path fill="#4d5ae5" style="fill: var(--color2, #4d5ae5)" d="M26.134 22.656h-1.067v1.067h1.067v-1.067z"></path>
<path fill="#4d5ae5" style="fill: var(--color2, #4d5ae5)" d="M27.2 21.589h-1.067v1.067h1.067v-1.067z"></path>
<path fill="#4d5ae5" style="fill: var(--color2, #4d5ae5)" d="M25.067 21.589h-1.067v1.067h1.067v-1.067z"></path>
<path fill="#4d5ae5" style="fill: var(--color2, #4d5ae5)" d="M22.4 26.389h-1.067v1.067h1.067v-1.067z"></path>
<path fill="#4d5ae5" style="fill: var(--color2, #4d5ae5)" d="M22.4 28.522h-1.067v1.067h1.067v-1.067z"></path>
<path fill="#4d5ae5" style="fill: var(--color2, #4d5ae5)" d="M23.467 27.456h-1.067v1.067h1.067v-1.067z"></path>
<path fill="#4d5ae5" style="fill: var(--color2, #4d5ae5)" d="M21.333 27.456h-1.067v1.067h1.067v-1.067z"></path>
<path fill="#4d5ae5" style="fill: var(--color2, #4d5ae5)" d="M16 24.256h-1.067v1.067h1.067v-1.067z"></path>
<path fill="#4d5ae5" style="fill: var(--color2, #4d5ae5)" d="M16 26.389h-1.067v1.067h1.067v-1.067z"></path>
<path fill="#4d5ae5" style="fill: var(--color2, #4d5ae5)" d="M17.067 25.322h-1.067v1.067h1.067v-1.067z"></path>
<path fill="#4d5ae5" style="fill: var(--color2, #4d5ae5)" d="M14.933 25.322h-1.067v1.067h1.067v-1.067z"></path>
<path fill="#4d5ae5" style="fill: var(--color2, #4d5ae5)" d="M5.867 6.122h-1.067v1.067h1.067v-1.067z"></path>
<path fill="#4d5ae5" style="fill: var(--color2, #4d5ae5)" d="M5.867 8.255h-1.067v1.067h1.067v-1.067z"></path>
<path fill="#4d5ae5" style="fill: var(--color2, #4d5ae5)" d="M6.933 7.189h-1.067v1.067h1.067v-1.067z"></path>
<path fill="#4d5ae5" style="fill: var(--color2, #4d5ae5)" d="M4.8 7.189h-1.067v1.067h1.067v-1.067z"></path>
<path fill="#2e2f42" style="fill: var(--color1, #2e2f42)" d="M24.715 14.159c-0.287-0.388-0.709-0.637-1.188-0.705-0.481-0.068-0.956 0.058-1.34 0.352l-1.252 0.96-1.898 1.417-1.358-0.541c2.421-1.086 4.114-3.508 4.114-6.32 0-3.823-3.123-6.933-6.961-6.933s-6.961 3.11-6.961 6.933c0 1.386 0.414 2.674 1.12 3.758l-2.764-0.024c-0.002 0-0.003 0-0.005 0-0.009 0-0.015 0.004-0.023 0.005-0.053 0.002-0.105 0.013-0.155 0.031-0.013 0.005-0.026 0.008-0.038 0.013-0.006 0.003-0.013 0.003-0.019 0.006l-3.233 1.596c-0.001 0-0.001 0-0.001 0.001l-1.893 0.911c-0.021 0.009-0.042 0.021-0.063 0.035-0.755 0.502-1.012 1.489-0.598 2.295 0.22 0.429 0.595 0.745 1.056 0.889 0.178 0.055 0.359 0.083 0.539 0.083 0.29 0 0.577-0.071 0.839-0.211l1.388-0.738 2.264-1.169 1.357-0.008-5.442 5.416c-0.001 0.001-0.001 0.001-0.002 0.001l-1.339 1.333c-0.316 0.315-0.49 0.732-0.49 1.178s0.174 0.863 0.49 1.179c0.325 0.323 0.752 0.485 1.179 0.485s0.854-0.162 1.18-0.485l1.314-1.309 1.741-1.3 0.901 0.897-1.762 1.754c-0 0.001-0.001 0.001-0.002 0.001l-1.339 1.333c-0.316 0.315-0.49 0.732-0.49 1.178s0.174 0.863 0.49 1.179c0.325 0.323 0.753 0.485 1.18 0.485s0.855-0.162 1.18-0.485l3.482-3.467c0.001-0.001 0.001-0.001 0.001-0.002l1.010-1-0.004-0.004c0.006-0.006 0.015-0.009 0.022-0.015l5.166-5.658 3.471 0.494c0.025 0.004 0.050 0.005 0.075 0.005 0.065 0 0.127-0.015 0.187-0.038 0.018-0.006 0.033-0.015 0.050-0.023 0.019-0.010 0.039-0.015 0.058-0.027l3.213-2.133c0.012-0.008 0.018-0.021 0.029-0.029 0.013-0.010 0.029-0.014 0.041-0.026l1.271-1.191c0.662-0.62 0.753-1.635 0.212-2.362zM2.13 17.77c-0.173 0.093-0.37 0.111-0.558 0.052-0.187-0.058-0.338-0.186-0.427-0.358-0.161-0.314-0.068-0.695 0.214-0.902l1.314-0.632 0.449 1.313-0.992 0.527zM5.628 15.942l-1.548 0.8-0.439-1.283 2.027-1.001-0.040 1.484zM20.727 9.322c0 0.918-0.219 1.785-0.599 2.559l-4.181-1.899c-0.044-0.573-0.341-1.075-0.788-1.388l1.464-4.86c2.378 0.756 4.105 2.974 4.105 5.588zM8.938 9.322c0-3.235 2.644-5.867 5.894-5.867 0.253 0 0.5 0.021 0.745 0.052l-1.432 4.754c-0.019-0.001-0.037-0.006-0.057-0.006-1.033 0-1.873 0.837-1.873 1.867s0.84 1.867 1.873 1.867c0.694 0 1.294-0.383 1.618-0.945l3.862 1.755c-1.075 1.446-2.795 2.39-4.737 2.39-3.25 0-5.894-2.632-5.894-5.867zM14.894 10.122c0 0.441-0.362 0.8-0.806 0.8s-0.806-0.359-0.806-0.8c0-0.441 0.362-0.8 0.806-0.8s0.806 0.359 0.806 0.8zM2.465 25.146c-0.236 0.234-0.619 0.234-0.854 0.001-0.114-0.114-0.176-0.263-0.176-0.423s0.062-0.309 0.176-0.421l0.962-0.958 0.851 0.848-0.959 0.955zM5.679 28.88c-0.236 0.234-0.619 0.235-0.855 0.001-0.114-0.114-0.176-0.263-0.176-0.423s0.062-0.309 0.176-0.421l0.963-0.959 0.852 0.848-0.96 0.955zM9.16 25.411c-0.001 0-0.001 0-0.002 0.001l-1.765 1.76-0.852-0.848 1.763-1.755c0 0 0 0 0-0s0.001-0.001 0.002-0.001c0.040-0.040 0.065-0.088 0.090-0.135 0.007-0.014 0.020-0.026 0.026-0.040 0.017-0.041 0.019-0.085 0.026-0.129 0.003-0.025 0.014-0.047 0.014-0.073 0-0.036-0.013-0.070-0.020-0.106-0.006-0.032-0.006-0.065-0.019-0.095-0.020-0.050-0.055-0.094-0.091-0.138-0.010-0.012-0.014-0.027-0.025-0.038 0 0 0 0-0.001 0s-0.001-0.002-0.001-0.002l-1.607-1.6c-0.017-0.017-0.039-0.024-0.058-0.038-0.028-0.022-0.055-0.042-0.087-0.058-0.030-0.015-0.061-0.024-0.093-0.033-0.034-0.010-0.067-0.017-0.103-0.020-0.033-0.002-0.063 0.001-0.095 0.005-0.036 0.004-0.069 0.009-0.104 0.020-0.034 0.011-0.063 0.027-0.094 0.045-0.020 0.011-0.042 0.015-0.061 0.029l-1.773 1.324-0.901-0.897 2.399-2.386 4.361 4.289-0.928 0.919zM15.979 18.394c-0.015-0.002-0.030 0.004-0.045 0.003-0.039-0.002-0.076 0.001-0.115 0.007-0.030 0.005-0.059 0.011-0.088 0.021-0.034 0.012-0.065 0.028-0.097 0.047-0.030 0.018-0.057 0.037-0.083 0.061-0.013 0.011-0.028 0.017-0.040 0.029l-4.698 5.146-4.328-4.257 2.833-2.818c0.209-0.208 0.21-0.546 0.002-0.755-0.105-0.105-0.243-0.157-0.381-0.156v-0.001l-2.219 0.013 0.028-1.607 3.104 0.027c1.265 1.294 3.029 2.101 4.981 2.101 0.437 0 0.864-0.045 1.279-0.123 0.040 0.032 0.079 0.065 0.13 0.085l2.41 0.96 0.152 0.758 0.178 0.885-3.003-0.427zM20.020 18.572l-0.313-1.558 1.446-1.080 0.947 1.257-2.080 1.381zM23.774 15.741l-0.838 0.785-0.931-1.236 0.831-0.637c0.155-0.119 0.351-0.168 0.543-0.143 0.193 0.027 0.364 0.128 0.48 0.284 0.217 0.292 0.18 0.699-0.085 0.947z"></path>
<path fill="#2e2f42" style="fill: var(--color1, #2e2f42)" d="M13.602 18.544l-2.143-2.133c-0.207-0.207-0.545-0.207-0.753 0l-2.142 2.133c-0.1 0.101-0.157 0.236-0.157 0.378s0.056 0.278 0.157 0.378l2.142 2.133c0.104 0.103 0.241 0.155 0.377 0.155s0.273-0.052 0.376-0.155l2.143-2.133c0.1-0.1 0.157-0.236 0.157-0.378s-0.057-0.278-0.157-0.378zM11.083 20.303l-1.387-1.381 1.387-1.381 1.387 1.381-1.387 1.381z"></path>
<path fill="#2e2f42" style="fill: var(--color1, #2e2f42)" d="M17.164 5.071l-0.258 1.036c0.071 0.018 1.738 0.452 1.738 2.149h1.067c-0-2.017-1.666-2.965-2.547-3.185z"></path>
<path fill="#2e2f42" style="fill: var(--color1, #2e2f42)" d="M19.711 9.322h-1.067v1.067h1.067v-1.067z"></path>
</symbol>
<symbol id="icon-clock-1" viewBox="0 0 32 32">
<path fill="#2e2f42" style="fill: var(--color1, #2e2f42)" d="M31.297 15.301c-0.002-8.452-6.855-15.303-15.308-15.301s-15.303 6.855-15.301 15.308c0.001 6.658 4.307 12.551 10.649 14.576 0.061 0.019 0.124 0.029 0.187 0.029 0.121-0 0.239-0.032 0.342-0.094 0.135-0.080 0.236-0.207 0.283-0.356l3.865-12.25c1.057-0.005 1.909-0.866 1.903-1.923s-0.866-1.909-1.923-1.903c-0.284 0.001-0.565 0.067-0.82 0.191l-5.106-5.107c-0.253-0.245-0.657-0.238-0.902 0.016-0.239 0.247-0.239 0.639 0 0.886l5.103 5.109c-0.392 0.799-0.168 1.764 0.536 2.309l-3.683 11.673c-7.278-2.681-11.004-10.754-8.323-18.032s10.754-11.004 18.032-8.323c7.278 2.681 11.004 10.754 8.323 18.032-1.31 3.556-4.001 6.431-7.462 7.973l-0.398-1.874c-0.073-0.345-0.411-0.565-0.756-0.492-0.109 0.023-0.209 0.074-0.293 0.148l-3.837 3.426c-0.263 0.234-0.287 0.637-0.052 0.9 0.076 0.085 0.174 0.149 0.283 0.184l4.899 1.564c0.335 0.108 0.694-0.077 0.802-0.412 0.034-0.106 0.040-0.219 0.017-0.328l-0.391-1.839c5.664-2.388 9.342-7.942 9.329-14.089zM15.992 14.664c0.352 0 0.638 0.286 0.638 0.638s-0.286 0.638-0.638 0.638c-0.352 0-0.638-0.285-0.638-0.638s0.285-0.638 0.638-0.638zM18.093 29.528l2.184-1.948 0.603 2.84-2.787-0.892z"></path>
<path fill="#4d5ae5" style="fill: var(--color2, #4d5ae5)" d="M15.354 3.185v1.275c0 0.352 0.285 0.638 0.638 0.638s0.638-0.285 0.638-0.638v-1.275c0-0.352-0.286-0.638-0.638-0.638s-0.638 0.286-0.638 0.638z"></path>
<path fill="#4d5ae5" style="fill: var(--color2, #4d5ae5)" d="M3.876 14.664c-0.352 0-0.638 0.286-0.638 0.638s0.285 0.638 0.638 0.638h1.275c0.352 0 0.638-0.285 0.638-0.638s-0.285-0.638-0.638-0.638h-1.275z"></path>
<path fill="#4d5ae5" style="fill: var(--color2, #4d5ae5)" d="M28.108 15.939c0.352 0 0.638-0.285 0.638-0.638s-0.285-0.638-0.638-0.638h-1.275c-0.352 0-0.638 0.286-0.638 0.638s0.286 0.638 0.638 0.638h1.275z"></path>
</symbol>
<symbol id="icon-diagram-1" viewBox="0 0 32 32">
<path fill="#4d5ae5" style="fill: var(--color2, #4d5ae5)" d="M14.926 14.965h1.066v4.798h-1.066v-4.797z"></path>
<path fill="#4d5ae5" style="fill: var(--color2, #4d5ae5)" d="M19.19 17.097h1.066v2.665h-1.066v-2.665z"></path>
<path fill="#4d5ae5" style="fill: var(--color2, #4d5ae5)" d="M10.661 18.696h1.066v1.066h-1.066v-1.066z"></path>
<path fill="#4d5ae5" style="fill: var(--color2, #4d5ae5)" d="M7.463 18.163h1.066v1.599h-1.066v-1.599z"></path>
<path fill="#2e2f42" style="fill: var(--color1, #2e2f42)" d="M1.599 28.291h25.587c0.883 0 1.599-0.716 1.599-1.599v-2.132c0-0.883-0.716-1.599-1.599-1.599h-0.533v-13.293l3.028-2.868c0.703 0.346 1.553 0.136 2.013-0.499s0.396-1.508-0.152-2.068-1.42-0.644-2.065-0.198c-0.644 0.446-0.873 1.292-0.542 2.002l-2.281 2.163v-1.23c0-0.883-0.716-1.599-1.599-1.599h-21.322c-0.883 0-1.599 0.716-1.599 1.599v15.992h-0.533c-0.883 0-1.599 0.716-1.599 1.599v2.132c0 0.883 0.716 1.599 1.599 1.599zM30.384 4.837c0.294 0 0.533 0.239 0.533 0.533s-0.239 0.533-0.533 0.533c-0.294 0-0.533-0.239-0.533-0.533s0.239-0.533 0.533-0.533zM3.198 6.969c0-0.294 0.239-0.533 0.533-0.533h21.322c0.294 0 0.533 0.239 0.533 0.533v2.239l-1.066 1.013v-2.186c0-0.294-0.239-0.533-0.533-0.533h-19.19c-0.294 0-0.533 0.239-0.533 0.533v13.326c0 0.294 0.239 0.533 0.533 0.533h19.19c0.294 0 0.533-0.239 0.533-0.533v-9.674l1.066-1.010v12.284h-22.388v-15.992zM7.996 13.899c-0.721-0.002-1.354 0.478-1.546 1.174s0.105 1.433 0.725 1.801c0.62 0.368 1.41 0.276 1.928-0.226l1.853 0.93c0.215 0.108 0.476 0.057 0.636-0.123l3.939-4.431 3.872 2.901c0.208 0.156 0.498 0.139 0.686-0.039l3.365-3.188v8.131h-18.124v-12.26h18.124v2.66l-3.771 3.572-3.904-2.927c-0.222-0.166-0.534-0.135-0.718 0.072l-3.993 4.493-1.493-0.746c0.011-0.064 0.018-0.129 0.020-0.193 0-0.883-0.716-1.599-1.599-1.599zM8.529 15.498c0 0.294-0.239 0.533-0.533 0.533s-0.533-0.239-0.533-0.533c0-0.294 0.239-0.533 0.533-0.533s0.533 0.239 0.533 0.533zM11.727 24.027h5.331v0.533c0 0.294-0.239 0.533-0.533 0.533h-4.264c-0.294 0-0.533-0.239-0.533-0.533v-0.533zM1.066 24.56c0-0.294 0.239-0.533 0.533-0.533h9.062v0.533c0 0.883 0.716 1.599 1.599 1.599h4.264c0.883 0 1.599-0.716 1.599-1.599v-0.533h9.062c0.294 0 0.533 0.239 0.533 0.533v2.132c0 0.294-0.239 0.533-0.533 0.533h-25.587c-0.294 0-0.533-0.239-0.533-0.533v-2.132z"></path>
</symbol>
<symbol id="icon-close" viewBox="0 0 32 32">
<path fill="#e7e9fc" style="fill: var(--color1, #e7e9fc)" d="M32 16c0 8.837-7.163 16-16 16s-16-7.163-16-16c0-8.837 7.163-16 16-16s16 7.163 16 16z"></path>
<path fill="none" stroke="#000" style="stroke: var(--color2, #000)" stroke-linejoin="miter" stroke-linecap="butt" stroke-miterlimit="4" stroke-width="1.3333" d="M31.333 16c0 8.468-6.865 15.333-15.333 15.333s-15.333-6.865-15.333-15.333c0-8.468 6.865-15.333 15.333-15.333s15.333 6.865 15.333 15.333z"></path>
<path fill="#000" style="fill: var(--color2, #000)" d="M21.333 11.741l-1.074-1.074-4.259 4.259-4.259-4.259-1.074 1.074 4.259 4.259-4.259 4.259 1.074 1.074 4.259-4.259 4.259 4.259 1.074-1.074-4.259-4.259 4.259-4.259z"></path>
</symbol>
<symbol id="icon-person-black-18dp-1" viewBox="0 0 32 32">
<path d="M16 16c2.947 0 5.333-2.387 5.333-5.333s-2.387-5.333-5.333-5.333c-2.947 0-5.333 2.387-5.333 5.333s2.387 5.333 5.333 5.333zM16 18.667c-3.56 0-10.667 1.787-10.667 5.333v1.333c0 0.733 0.6 1.333 1.333 1.333h18.667c0.733 0 1.333-0.6 1.333-1.333v-1.333c0-3.547-7.107-5.333-10.667-5.333z"></path>
</symbol>
<symbol id="icon-phone-black-18dp-1" viewBox="0 0 24 32">
<path d="M19.635 18.487l-2.451-0.28c-0.589-0.067-1.167 0.135-1.582 0.55l-1.775 1.775c-2.731-1.389-4.969-3.618-6.359-6.359l1.785-1.785c0.415-0.415 0.618-0.994 0.55-1.582l-0.28-2.432c-0.116-0.975-0.936-1.708-1.92-1.708h-1.669c-1.090 0-1.997 0.907-1.93 1.997 0.511 8.24 7.102 14.821 15.332 15.332 1.090 0.068 1.997-0.839 1.997-1.93v-1.669c0.010-0.975-0.724-1.795-1.698-1.911z"></path>
</symbol>
<symbol id="icon-email-black-18dp-1" viewBox="0 0 24 32">
<path d="M20 8h-16c-1.1 0-1.99 0.9-1.99 2l-0.010 12c0 1.1 0.9 2 2 2h16c1.1 0 2-0.9 2-2v-12c0-1.1-0.9-2-2-2zM19.6 12.25l-7.070 4.42c-0.32 0.2-0.74 0.2-1.060 0l-7.070-4.42c-0.25-0.16-0.4-0.43-0.4-0.72 0-0.67 0.73-1.070 1.3-0.72l6.7 4.19 6.7-4.19c0.57-0.35 1.3 0.050 1.3 0.72 0 0.29-0.15 0.56-0.4 0.72z"></path>
</symbol>
<symbol id="icon-Frame-3" viewBox="0 0 32 32">
<path fill="#fff" style="fill: var(--color1, #fff)" d="M32 2.667l-32 15 10.227 3.156 15.773-12.323-11.998 13.488 0.010 0.003-0.012-0.003v7.345l5.735-5.576 7.265 2.242 5-23.333z"></path>
</symbol>
<symbol id="icon-close-black-18dp-2-1" viewBox="0 0 32 32">
<path d="M32 3.223l-3.223-3.223-12.777 12.777-12.777-12.777-3.223 3.223 12.777 12.777-12.777 12.777 3.223 3.223 12.777-12.777 12.777 12.777 3.223-3.223-12.777-12.777 12.777-12.777z"></path>
</symbol>
  </defs>
</svg>


